<?xml version="1.0" encoding="UTF-8"?>
<!DOCTYPE svg PUBLIC "-//W3C//DTD SVG 1.1//EN" "http://www.w3.org/Graphics/SVG/1.1/DTD/svg11.dtd">
<!-- Creator: CorelDRAW 2017 -->
<svg xmlns="http://www.w3.org/2000/svg" xml:space="preserve" width="297mm" height="297mm" version="1.1" style="shape-rendering:geometricPrecision; text-rendering:geometricPrecision; image-rendering:optimizeQuality; fill-rule:evenodd; clip-rule:evenodd"
viewBox="0 0 29700 29700"
 xmlns:xlink="http://www.w3.org/1999/xlink">
 <defs>
  <style type="text/css">
   <![CDATA[
    .str0 {stroke:#5EAAC1;stroke-width:2000;stroke-miterlimit:22.9256}
    .fil0 {fill:none}
   ]]>
  </style>
 </defs>
 <g id="Слой_x0020_1">
  <metadata id="CorelCorpID_0Corel-Layer"/>
  <path class="fil0 str0" d="M9202.36 23235.32l5698.11 0.02c0,-0.01 0,-0.01 0,-0.02 0,-4033.05 -2551.13,-7302.48 -5698.11,-7302.48 -3146.98,0 -5698.11,3269.43 -5698.11,7302.48 0,0 0,0 0,0.01l5698.11 -0.01z"/>
  <path class="fil0 str0" d="M18852.74 23235.32l5698.11 0.02c0,-0.01 0,-0.01 0,-0.02 0,-4033.05 -2551.13,-7302.48 -5698.11,-7302.48 -1145.6,0 -2212.04,433.62 -3105.4,1179.27 1560.69,1302.64 2592.72,3558.32 2592.72,6123.21l512.68 0zm-5698.11 0c0,0 0,0 0,0.01l1557.58 0 -1557.58 -0.01z"/>
  <circle class="fil0 str0" cx="9464.93" cy="9477" r="3016.25"/>
  <ellipse class="fil0 str0" cx="19413.26" cy="9477" rx="2487.09" ry="3016.25"/>
 </g>
</svg>
