<svg width="347" height="345" viewBox="0 0 347 345" fill="none" xmlns="http://www.w3.org/2000/svg">
<rect x="123" y="345" width="51" height="123" rx="10" transform="rotate(-180 123 345)" fill="white"/>
<rect y="273" width="51" height="123" rx="10" transform="rotate(-90 0 273)" fill="white"/>
<rect width="51" height="123" rx="10" transform="matrix(1 0 0 -1 224 345)" fill="white"/>
<rect width="51" height="123" rx="10" transform="matrix(-4.37114e-08 -1 -1 4.37114e-08 347 273)" fill="white"/>
<rect width="51" height="123" rx="10" transform="matrix(-1 0 0 1 123 0)" fill="white"/>
<rect width="51" height="123" rx="10" transform="matrix(4.37114e-08 1 1 -4.37114e-08 0 72)" fill="white"/>
<rect x="224" width="51" height="123" rx="10" fill="white"/>
<rect x="347" y="72" width="51" height="123" rx="10" transform="rotate(90 347 72)" fill="white"/>
</svg>
