<svg width="347" height="345" viewBox="0 0 347 345" fill="none" xmlns="http://www.w3.org/2000/svg">
<rect y="222" width="51" height="123" rx="10" fill="white"/>
<rect x="123" y="294" width="51" height="123" rx="10" transform="rotate(90 123 294)" fill="white"/>
<rect width="51" height="123" rx="10" transform="matrix(-1 0 0 1 347 222)" fill="white"/>
<rect width="51" height="123" rx="10" transform="matrix(4.37114e-08 1 1 -4.37114e-08 224 294)" fill="white"/>
<rect width="51" height="123" rx="10" transform="matrix(1 0 0 -1 0 123)" fill="white"/>
<rect width="51" height="123" rx="10" transform="matrix(-4.37114e-08 -1 -1 4.37114e-08 123 51)" fill="white"/>
<rect x="347" y="123" width="51" height="123" rx="10" transform="rotate(-180 347 123)" fill="white"/>
<rect x="224" y="51" width="51" height="123" rx="10" transform="rotate(-90 224 51)" fill="white"/>
</svg>
