<?xml version="1.0" encoding="UTF-8"?>
<!DOCTYPE svg PUBLIC "-//W3C//DTD SVG 1.1//EN" "http://www.w3.org/Graphics/SVG/1.1/DTD/svg11.dtd">
<!-- Creator: CorelDRAW 2017 -->
<svg xmlns="http://www.w3.org/2000/svg" xml:space="preserve" width="297mm" height="297mm" version="1.1" style="shape-rendering:geometricPrecision; text-rendering:geometricPrecision; image-rendering:optimizeQuality; fill-rule:evenodd; clip-rule:evenodd"
viewBox="0 0 29700 29700"
 xmlns:xlink="http://www.w3.org/1999/xlink">
 <defs>
  <style type="text/css">
   <![CDATA[
    .str0 {stroke:#464646;stroke-width:2000;stroke-linejoin:round;stroke-miterlimit:22.9256}
    .fil0 {fill:none}
   ]]>
  </style>
 </defs>
 <g id="Слой_x0020_1">
  <metadata id="CorelCorpID_0Corel-Layer"/>
  <path class="fil0 str0" d="M2585.86 7305.36c1761.36,590.27 3629.08,1215.69 5610.38,1879.24 2106.26,705.41 4352.08,1458.01 6749.99,2260.5 -16.15,2631.79 -32.27,5257.3 -48.31,7870.28 -16.02,2608.26 -31.99,5210.28 -47.92,7804.45 -2376.79,-1304.1 -4603.91,-2527.48 -6693.76,-3675.13 -1965.89,-1079.58 -3820.28,-2097.95 -5570.38,-3059.26 0,-2166.07 0,-4339.98 0,-6516.49 0,-2180.45 0,-4370.06 0,-6563.59z"/>
  <path class="fil0 str0" d="M26768.79 7097.48c-1774.57,652.98 -3622.42,1332.6 -5544.79,2039.47 -2003.89,736.84 -4094.15,1505.94 -6277.77,2308.15 -15.92,2595.74 -31.91,5200.88 -47.92,7809.15 -16.04,2614.54 -32.16,5238.49 -48.31,7865.58 2202.59,-1146.94 4312.07,-2246.53 6331.26,-3298.94 1937.84,-1010 3799.71,-1980.06 5587.53,-2912.16 0,-2312.01 0,-4624.01 0,-6927.72 0,-2298.19 0,-4593.62 0,-6883.53z"/>
  <path class="fil0 str0" d="M26768.79 7097.48c-1940.38,-698.67 -3901.03,-1403.77 -5877.16,-2114.7 -1994.01,-717.35 -4008.29,-1442.13 -6041.63,-2173.28 -2041.82,749.02 -4085.74,1498.27 -6128.3,2247.04 -2043.85,749.24 -4090.03,1499.37 -6135.84,2248.82 2091.04,711.6 4164.85,1417.64 6216.7,2116.15 2034.55,692.62 4052.07,1379.05 6047.44,2058.97 1988.1,-730.64 3976.48,-1461.89 5962.91,-2192.37 1984.9,-729.92 3971.44,-1460.42 5955.88,-2190.63z"/>
 </g>
</svg>
