<svg width="39" height="33" viewBox="0 0 39 33" fill="none" xmlns="http://www.w3.org/2000/svg">
<path fill-rule="evenodd" clip-rule="evenodd" d="M8.0646 1.55302C6.07982 2.06266 3.67288 3.5696 2.71708 4.90191C0.12776 8.50892 0.51841 15.7273 3.54116 20.1285C6.58193 24.557 15.989 31 19.4137 31C23.4182 31 33.3769 23.7003 35.866 18.94C40.0754 10.8902 37.8902 3.38838 30.7842 1.49041C27.2852 0.55571 21.242 1.92317 21.242 3.64869C21.242 5.1798 18.2935 4.81954 16.8401 3.11049C15.013 0.963201 12.2604 0.474432 8.0646 1.55302Z" fill="#F01A1A" fill-opacity="0.75"/>
<path fill-rule="evenodd" clip-rule="evenodd" d="M7.87621 0.791172C3.24812 2.53634 -0.515774 7.07691 0.0579796 13.7839C0.488566 18.8172 3.44912 22.9113 6.94664 25.9915C10.446 29.0734 14.5874 31.2374 17.6474 32.4267C18.6939 32.8334 19.87 32.857 20.9384 32.4757C24.1504 31.3294 28.2768 29.1761 31.7407 26.0813C35.2015 22.9894 38.0849 18.8781 38.6001 13.8268C39.5705 7.01619 35.6911 2.48632 30.9314 0.777847C26.9572 -0.648653 22.1087 -0.137453 19.2963 2.90319C16.4691 -0.160499 11.7879 -0.683861 7.87621 0.791172ZM8.88522 3.14208C12.5057 1.77686 16.406 2.69093 18.1056 5.74748C18.3404 6.16964 18.8078 6.43283 19.3156 6.42885C19.8235 6.42487 20.2861 6.15439 20.5133 5.72862C22.094 2.76618 26.1603 1.77878 29.9645 3.14428C33.6254 4.45831 36.7238 7.91803 35.9174 13.513C35.9149 13.5299 35.9128 13.5469 35.9111 13.5639C35.4829 17.8307 33.0399 21.4199 29.8754 24.2471C26.7084 27.0766 22.9031 29.063 19.9764 30.1076C19.5628 30.2552 19.1013 30.2485 18.6829 30.0859C15.8529 28.986 12.0087 26.9727 8.79786 24.1448C5.58518 21.3154 3.1109 17.7672 2.75281 13.5813C2.27369 7.98058 5.3535 4.47383 8.88522 3.14208Z" fill="#14142B"/>
</svg>
