<?xml version="1.0" encoding="UTF-8"?>
<!DOCTYPE svg PUBLIC "-//W3C//DTD SVG 1.1//EN" "http://www.w3.org/Graphics/SVG/1.1/DTD/svg11.dtd">
<!-- Creator: CorelDRAW 2017 -->
<svg xmlns="http://www.w3.org/2000/svg" xml:space="preserve" width="297mm" height="297mm" version="1.1" style="shape-rendering:geometricPrecision; text-rendering:geometricPrecision; image-rendering:optimizeQuality; fill-rule:evenodd; clip-rule:evenodd"
viewBox="0 0 29700 29700"
 xmlns:xlink="http://www.w3.org/1999/xlink">
 <defs>
  <style type="text/css">
   <![CDATA[
    .str0 {stroke:#5EAAC1;stroke-width:2000;stroke-miterlimit:22.9256}
    .fil0 {fill:none}
    .fil1 {fill:#5EAAC1}
   ]]>
  </style>
 </defs>
 <g id="Слой_x0020_1">
  <metadata id="CorelCorpID_0Corel-Layer"/>
  <path class="fil0 str0" d="M7677.83 1645.33l14344.34 0c3317.88,0 6032.5,2714.62 6032.5,6032.5l0 14344.34c0,3317.88 -2714.62,6032.5 -6032.5,6032.5l-14344.34 0c-3317.88,0 -6032.5,-2714.62 -6032.5,-6032.5l0 -14344.34c0,-3317.88 2714.62,-6032.5 6032.5,-6032.5zm20376.84 15072.18l0 5304.66c0,3317.86 -2714.64,6032.5 -6032.5,6032.5l-11058.76 0 12298.57 -16566.83 4792.69 5229.67z"/>
  <circle class="fil1 str0" cx="8052.43" cy="8102.83" r="2222.5"/>
  <polyline class="fil0 str0" points="3119.26,24694.27 14850,12056.68 19289.33,16839.2 "/>
 </g>
</svg>
