<?xml version="1.0" encoding="UTF-8"?>
<!DOCTYPE svg PUBLIC "-//W3C//DTD SVG 1.1//EN" "http://www.w3.org/Graphics/SVG/1.1/DTD/svg11.dtd">
<!-- Creator: CorelDRAW 2017 -->
<svg xmlns="http://www.w3.org/2000/svg" xml:space="preserve" width="297mm" height="297mm" version="1.1" style="shape-rendering:geometricPrecision; text-rendering:geometricPrecision; image-rendering:optimizeQuality; fill-rule:evenodd; clip-rule:evenodd"
viewBox="0 0 29700 29700"
 xmlns:xlink="http://www.w3.org/1999/xlink">
 <defs>
  <style type="text/css">
   <![CDATA[
    .str0 {stroke:#5EAAC1;stroke-width:2000;stroke-miterlimit:22.9256}
    .fil0 {fill:none}
   ]]>
  </style>
 </defs>
 <g id="Слой_x0020_1">
  <metadata id="CorelCorpID_0Corel-Layer"/>
  <circle class="fil0 str0" cx="14850" cy="14850" r="3678.39"/>
  <path class="fil0 str0" d="M15035.4 2274.15l2670.81 5178.04c47.34,91.79 151.34,135.56 250.07,105.25 1884.57,-578.46 3769.15,-1156.92 5653.71,-1735.39 77.21,-23.7 155.71,-3.94 212.49,53.49 56.79,57.43 75.66,136.15 51.08,213.09l-1772.87 5549.97c-31.43,98.38 11.16,202.87 102.4,251.25 1741.63,923.55 3483.27,1847.12 5224.89,2770.67 71.35,37.84 112.88,107.32 112.42,188.08 -0.45,80.77 -42.77,149.78 -114.55,186.8l-5178.04 2670.81c-91.79,47.34 -135.56,151.34 -105.25,250.07 578.46,1884.57 1156.92,3769.15 1735.39,5653.71 23.7,77.21 3.94,155.71 -53.49,212.49 -57.43,56.79 -136.15,75.66 -213.09,51.08l-5549.97 -1772.87c-98.38,-31.43 -202.87,11.16 -251.25,102.4 -923.55,1741.63 -1847.12,3483.27 -2770.67,5224.89 -37.84,71.35 -107.32,112.88 -188.08,112.42 -80.77,-0.45 -149.78,-42.77 -186.8,-114.55l-2670.81 -5178.04c-47.34,-91.79 -151.34,-135.56 -250.07,-105.25 -1884.57,578.46 -3769.15,1156.92 -5653.71,1735.39 -77.21,23.7 -155.71,3.94 -212.49,-53.49 -56.79,-57.43 -75.66,-136.15 -51.08,-213.09l1772.87 -5549.97c31.43,-98.38 -11.16,-202.87 -102.4,-251.25 -1741.63,-923.55 -3483.27,-1847.12 -5224.89,-2770.67 -71.35,-37.84 -112.88,-107.32 -112.42,-188.08 0.45,-80.77 42.77,-149.78 114.55,-186.8l5178.04 -2670.81c91.79,-47.34 135.56,-151.34 105.25,-250.07 -578.46,-1884.57 -1156.92,-3769.15 -1735.39,-5653.71 -23.7,-77.21 -3.94,-155.71 53.49,-212.49 57.43,-56.79 136.15,-75.66 213.09,-51.08l5549.97 1772.87c98.38,31.43 202.87,-11.16 251.25,-102.4 923.55,-1741.63 1847.12,-3483.27 2770.67,-5224.89 37.84,-71.35 107.32,-112.88 188.08,-112.43 80.77,0.46 149.78,42.78 186.8,114.56z"/>
 </g>
</svg>
